<svg width="98" height="21" viewBox="0 0 98 21" fill="none" xmlns="http://www.w3.org/2000/svg">
<path d="M2.9333 16.2728V4.49101H7.05233C7.87307 4.49101 8.54999 4.63291 9.08308 4.91672C9.61618 5.19669 10.0131 5.57446 10.2739 6.05003C10.5347 6.52176 10.6651 7.04527 10.6651 7.62055C10.6651 8.1268 10.575 8.54484 10.3947 8.87467C10.2183 9.2045 9.98436 9.4653 9.69288 9.65706C9.40524 9.84882 9.09267 9.99073 8.75517 10.0828V10.1978C9.11568 10.2208 9.47811 10.3474 9.84246 10.5775C10.2068 10.8076 10.5117 11.1375 10.7572 11.567C11.0026 11.9965 11.1253 12.522 11.1253 13.1433C11.1253 13.7339 10.9911 14.2651 10.7226 14.7368C10.4542 15.2086 10.0304 15.5825 9.45126 15.8586C8.87215 16.1348 8.11852 16.2728 7.1904 16.2728H2.9333ZM4.36 15.0072H7.1904C8.12236 15.0072 8.78394 14.8269 9.17513 14.4664C9.57016 14.1021 9.76767 13.661 9.76767 13.1433C9.76767 12.7444 9.66604 12.3762 9.46277 12.0387C9.2595 11.6974 8.96994 11.4251 8.59409 11.2218C8.21824 11.0147 7.77335 10.9112 7.25943 10.9112H4.36V15.0072ZM4.36 9.66857H7.00631C7.43585 9.66857 7.82321 9.58419 8.16838 9.41544C8.51739 9.24669 8.79352 9.00891 8.99679 8.70209C9.20389 8.39527 9.30744 8.03476 9.30744 7.62055C9.30744 7.1028 9.12719 6.66367 8.76668 6.30315C8.40617 5.93881 7.83472 5.75663 7.05233 5.75663H4.36V9.66857ZM13.4696 16.2728V4.49101H20.5801V5.75663H14.8963V9.7376H20.212V11.0032H14.8963V15.0072H20.6722V16.2728H13.4696ZM23.1517 16.2728V4.49101H30.2622V5.75663H24.5784V9.7376H29.894V11.0032H24.5784V15.0072H30.3542V16.2728H23.1517ZM32.8337 16.2728V4.49101H39.8982V5.75663H34.2604V9.7376H39.3689V11.0032H34.2604V16.2728H32.8337ZM47.7033 16.3649C47.4195 16.3649 47.176 16.2632 46.9727 16.06C46.7695 15.8567 46.6678 15.6132 46.6678 15.3294C46.6678 15.0456 46.7695 14.802 46.9727 14.5988C47.176 14.3955 47.4195 14.2938 47.7033 14.2938C47.9871 14.2938 48.2307 14.3955 48.434 14.5988C48.6372 14.802 48.7389 15.0456 48.7389 15.3294C48.7389 15.5173 48.6909 15.6899 48.595 15.8471C48.503 16.0044 48.3783 16.1309 48.2211 16.2268C48.0677 16.3188 47.8951 16.3649 47.7033 16.3649ZM55.9155 16.2728V4.49101H60.0346C60.8553 4.49101 61.5322 4.63291 62.0653 4.91672C62.5984 5.19669 62.9953 5.57446 63.2561 6.05003C63.5169 6.52176 63.6473 7.04527 63.6473 7.62055C63.6473 8.1268 63.5572 8.54484 63.377 8.87467C63.2005 9.2045 62.9666 9.4653 62.6751 9.65706C62.3875 9.84882 62.0749 9.99073 61.7374 10.0828V10.1978C62.0979 10.2208 62.4603 10.3474 62.8247 10.5775C63.189 10.8076 63.4939 11.1375 63.7394 11.567C63.9848 11.9965 64.1076 12.522 64.1076 13.1433C64.1076 13.7339 63.9733 14.2651 63.7049 14.7368C63.4364 15.2086 63.0126 15.5825 62.4335 15.8586C61.8544 16.1348 61.1007 16.2728 60.1726 16.2728H55.9155ZM57.3422 15.0072H60.1726C61.1046 15.0072 61.7662 14.8269 62.1574 14.4664C62.5524 14.1021 62.7499 13.661 62.7499 13.1433C62.7499 12.7444 62.6483 12.3762 62.445 12.0387C62.2417 11.6974 61.9522 11.4251 61.5763 11.2218C61.2005 11.0147 60.7556 10.9112 60.2417 10.9112H57.3422V15.0072ZM57.3422 9.66857H59.9885C60.4181 9.66857 60.8054 9.58419 61.1506 9.41544C61.4996 9.24669 61.7757 9.00891 61.979 8.70209C62.1861 8.39527 62.2897 8.03476 62.2897 7.62055C62.2897 7.1028 62.1094 6.66367 61.7489 6.30315C61.3884 5.93881 60.8169 5.75663 60.0346 5.75663H57.3422V9.66857ZM66.9351 16.2728H65.4393L69.7655 4.49101H71.2382L75.5643 16.2728H74.0686L70.5479 6.35493H70.4558L66.9351 16.2728ZM67.4874 11.6706H73.5163V12.9362H67.4874V11.6706ZM77.3995 16.2728V4.49101H81.5185C82.3393 4.49101 83.0162 4.63291 83.5493 4.91672C84.0824 5.19669 84.4793 5.57446 84.7401 6.05003C85.0009 6.52176 85.1313 7.04527 85.1313 7.62055C85.1313 8.1268 85.0412 8.54484 84.8609 8.87467C84.6845 9.2045 84.4506 9.4653 84.1591 9.65706C83.8715 9.84882 83.5589 9.99073 83.2214 10.0828V10.1978C83.5819 10.2208 83.9443 10.3474 84.3087 10.5775C84.673 10.8076 84.9779 11.1375 85.2234 11.567C85.4688 11.9965 85.5916 12.522 85.5916 13.1433C85.5916 13.7339 85.4573 14.2651 85.1889 14.7368C84.9204 15.2086 84.4966 15.5825 83.9175 15.8586C83.3384 16.1348 82.5847 16.2728 81.6566 16.2728H77.3995ZM78.8262 15.0072H81.6566C82.5886 15.0072 83.2501 14.8269 83.6413 14.4664C84.0364 14.1021 84.2339 13.661 84.2339 13.1433C84.2339 12.7444 84.1322 12.3762 83.929 12.0387C83.7257 11.6974 83.4362 11.4251 83.0603 11.2218C82.6844 11.0147 82.2396 10.9112 81.7256 10.9112H78.8262V15.0072ZM78.8262 9.66857H81.4725C81.9021 9.66857 82.2894 9.58419 82.6346 9.41544C82.9836 9.24669 83.2597 9.00891 83.463 8.70209C83.6701 8.39527 83.7737 8.03476 83.7737 7.62055C83.7737 7.1028 83.5934 6.66367 83.2329 6.30315C82.8724 5.93881 82.3009 5.75663 81.5185 5.75663H78.8262V9.66857ZM86.9233 4.49101H88.5571L91.8247 9.99073H91.9628L95.2304 4.49101H96.8642L92.6071 11.4174V16.2728H91.1804V11.4174L86.9233 4.49101Z" fill="black"/>
<path d="M3.36746 14.1737C3.37293 14.8932 3.47803 15.6414 3.47803 16.3462C4.35343 16.3462 5.23516 16.3601 6.09882 16.1938C7.34333 15.9542 8.98625 15.3828 9.92093 14.4815C10.6618 13.7671 10.4972 12.6112 10.1301 11.7412C9.63093 10.5579 8.48259 10.194 7.32106 9.96906C6.61915 9.83313 5.9163 9.71642 5.22024 9.55069C5.06514 9.51377 4.60616 9.43876 4.76302 9.41024C5.6038 9.25737 6.47387 9.24859 7.30911 9.04865C8.06989 8.86653 9.04073 8.48114 9.27246 7.64113C9.42283 7.09601 8.95617 6.26702 8.60605 5.88099C7.4767 4.63581 5.58299 4.38244 4.02789 4.90081C2.71909 5.33707 2.96477 6.71703 3.04771 7.8294C3.13134 8.95106 3.20908 10.0505 3.20908 11.1764C3.20908 12.1779 3.35981 13.1671 3.36746 14.1737Z" stroke="black" stroke-width="4.05" stroke-linecap="round"/>
<path d="M14.8272 16.3998C14.5127 14.9534 14.4411 13.4375 14.2534 11.971C14.131 11.0146 13.9933 10.0628 13.859 9.10818C13.6905 7.91047 13.5498 6.68615 13.5362 5.47433C13.5318 5.08222 13.7202 5.01964 14.1189 4.97827C15.2301 4.86295 16.3768 4.94241 17.4928 4.94241C18.0602 4.94241 18.8648 4.78237 19.3994 4.9962" stroke="black" stroke-width="4.05" stroke-linecap="round"/>
<path d="M14.6123 11.5048C16.2875 11.435 17.9394 11.2358 19.6148 11.2358" stroke="black" stroke-width="4.05" stroke-linecap="round"/>
<path d="M15.688 16.5075C17.3557 16.5075 19.0214 16.3999 20.6905 16.3999" stroke="black" stroke-width="4.05" stroke-linecap="round"/>
<path d="M29.8888 5.48035C28.0838 5.48035 26.2724 5.76609 24.4679 5.56103C24.1442 5.52425 23.9524 5.44121 23.93 5.827C23.8545 7.12831 23.9397 8.46897 24.0824 9.76266C24.3094 11.8194 24.5834 13.9284 24.6173 15.9994C24.6254 16.489 25.7246 16.34 26.0308 16.34C27.1555 16.34 28.2797 16.2922 29.4047 16.2922" stroke="black" stroke-width="4.05" stroke-linecap="round"/>
<path d="M25.209 10.4828H28.8129" stroke="black" stroke-width="4.05" stroke-linecap="round"/>
<path d="M39.4637 5.26514C38.6385 5.26514 37.8039 5.39107 36.9774 5.41455C35.8599 5.4463 34.7518 5.37272 33.6364 5.37272C32.738 5.37272 33.4042 8.74344 33.481 9.29344C33.7157 10.9755 33.5157 12.6555 33.8157 14.3318C33.9259 14.9477 33.977 15.5603 33.977 16.1846" stroke="black" stroke-width="4.05" stroke-linecap="round"/>
<path d="M34.407 10.9133C35.8801 10.8314 37.3422 10.6981 38.8178 10.6981" stroke="black" stroke-width="4.05" stroke-linecap="round"/>
<path d="M47.1327 16.4561C47.1327 16.0446 47.1495 15.7225 47.6898 15.7483C47.9027 15.7584 48.2183 15.8753 48.0367 16.1477C47.8382 16.4454 47.3281 16.5683 46.9995 16.5892C46.0155 16.6518 45.964 15.5373 46.4844 14.9529C47.1319 14.2257 48.2689 14.8426 48.0472 15.7798C47.8668 16.5425 46.8867 16.7042 46.9995 15.7413C47.1098 14.8 48.7004 13.2771 49.4313 14.606C49.9181 15.4911 48.7132 16.7507 47.9561 16.9817C46.6164 17.3904 46.0401 16.1534 46.4354 15.0264C46.7393 14.1598 47.8011 13.3749 48.5833 14.2766C49.4648 15.2928 48.8668 16.8438 47.8825 17.5528C46.9526 18.2226 45.9351 17.688 45.4507 16.7714C44.7985 15.537 45.2837 14.2245 46.565 13.716C47.5772 13.3142 48.6088 13.2247 49.221 14.2451C49.7811 15.1786 49.4717 16.7325 48.7585 17.5318C47.858 18.5409 46.2683 18.1962 45.682 17.0237" stroke="black" stroke-width="4.05" stroke-linecap="round"/>
<path d="M56.7898 16.4779C56.7363 16.4177 56.7157 16.3375 56.6843 16.2643C56.2168 15.1736 56.261 13.7403 56.1885 12.5746C56.1187 11.4524 56.0498 10.3428 55.8403 9.23568C55.6307 8.12769 55.6155 6.8828 55.6979 5.74906C55.7478 5.06298 57.1326 4.86274 57.6179 4.78114C58.5072 4.63162 59.6351 4.67352 60.4347 5.14246C61.5425 5.79219 62.611 6.64116 62.4101 8.06996C62.1874 9.65341 59.8516 9.8792 58.6254 9.8792C58.2078 9.8792 58.0678 9.84382 58.6096 9.94778C59.5206 10.1226 60.4922 10.1916 61.3129 10.6625C62.4804 11.3324 63.488 12.7497 62.9745 14.157C62.6217 15.1238 61.4845 15.4172 60.5876 15.6445C59.6134 15.8915 58.5975 16.0819 57.5968 16.1931" stroke="black" stroke-width="4.05" stroke-linecap="round"/>
<path d="M65.5723 17.0477C65.5723 16.942 65.5815 16.8384 65.6145 16.7365C66.0052 15.5271 66.5718 14.3552 67.065 13.1866C67.6015 11.9153 68.1923 10.6635 68.6949 9.37817C69.0107 8.57069 69.3082 7.75518 69.56 6.9254C69.5729 6.88298 69.84 5.82825 69.924 5.82825C70.1191 5.82825 70.3931 6.35409 70.462 6.46649C70.8286 7.06514 71.1129 7.71782 71.3798 8.36541C71.9199 9.67564 72.4019 11.0253 72.8989 12.3531C73.2953 13.4122 73.6429 14.4912 74.0277 15.5549C74.1018 15.7596 74.3073 16.0192 74.3073 16.2407" stroke="black" stroke-width="4.05" stroke-linecap="round"/>
<path d="M68.2783 12.7275H71.1267" stroke="black" stroke-width="4.05" stroke-linecap="round"/>
<path d="M78.7221 15.6711C78.7221 15.1067 78.6401 14.5099 78.6007 13.9515C78.4671 12.055 78.3467 10.1495 78.1287 8.26002C78.0213 7.32981 77.744 6.36444 77.8227 5.41955C77.86 4.97254 78.968 4.85066 79.2706 4.81032C80.2508 4.67963 81.1449 4.83334 82.003 5.32197C83.1507 5.97551 86.1397 7.66529 84.192 9.05651C83.3874 9.6312 82.4466 9.73387 81.4913 9.82135C81.0374 9.86292 79.6694 9.87937 80.1252 9.87937C81.644 9.87937 83.8312 9.93753 84.7617 11.3827C85.0764 11.8715 85.1747 12.5371 85.1204 13.1075C85.0371 13.9813 84.3974 14.5353 83.7014 14.9906C82.1776 15.9875 80.6365 15.1963 79.0069 15.1963" stroke="black" stroke-width="4.05" stroke-linecap="round"/>
<path d="M88.2998 5.55713C88.3353 5.65469 88.4402 5.71175 88.5116 5.78073C88.9849 6.23803 89.4034 6.76489 89.8238 7.26944C90.2149 7.7387 90.48 8.22582 90.8006 8.73461C91.0268 9.09358 91.5302 9.67349 91.5302 10.1115" stroke="black" stroke-width="4.05" stroke-linecap="round"/>
<path d="M95.9785 5.18628C94.8169 6.42292 93.8605 7.87634 92.7834 9.18755C92.6827 9.31021 92.7301 9.44728 92.6363 9.5612C92.4855 9.7443 92.3292 9.98644 92.2715 10.2173" stroke="black" stroke-width="4.05" stroke-linecap="round"/>
<path d="M92.1659 9.95264C92.1451 10.8689 91.6893 11.725 91.6893 12.6564C91.6893 13.0517 91.6893 13.4469 91.6893 13.8421C91.6893 14.4286 91.6694 14.9316 91.9541 15.4603" stroke="black" stroke-width="4.05" stroke-linecap="round"/>
</svg>
